<?xml version="1.0" encoding="UTF-8" standalone="no"?>
<!DOCTYPE svg PUBLIC "-//W3C//DTD SVG 1.1//EN"
 "http://www.w3.org/Graphics/SVG/1.1/DTD/svg11.dtd">
<!-- Generated by graphviz version 2.43.0 (0)
 -->
<!-- Title: G Pages: 1 -->
<svg width="659pt" height="702pt"
 viewBox="0.00 0.00 659.00 702.00" xmlns="http://www.w3.org/2000/svg" xmlns:xlink="http://www.w3.org/1999/xlink">
<g id="graph0" class="graph" transform="scale(1 1) rotate(0) translate(4 698)">
<title>G</title>
<polygon fill="white" stroke="transparent" points="-4,4 -4,-698 655,-698 655,4 -4,4"/>
<g id="clust1" class="cluster">
<title>cluster_interface</title>
<polygon fill="none" stroke="black" points="199,-609 199,-686 378,-686 378,-609 199,-609"/>
<text text-anchor="middle" x="288.5" y="-670.8" font-family="Times,serif" font-size="14.00">Interface</text>
</g>
<g id="clust2" class="cluster">
<title>cluster_cognitive</title>
<polygon fill="none" stroke="black" points="8,-91 8,-601 353,-601 353,-91 8,-91"/>
<text text-anchor="middle" x="180.5" y="-585.8" font-family="Times,serif" font-size="14.00">Cognitive Layer</text>
</g>
<g id="clust3" class="cluster">
<title>cluster_integration</title>
<polygon fill="none" stroke="black" points="54,-8 54,-83 333,-83 333,-8 54,-8"/>
<text text-anchor="middle" x="193.5" y="-67.8" font-family="Times,serif" font-size="14.00">Integration</text>
</g>
<g id="clust4" class="cluster">
<title>cluster_memory</title>
<polygon fill="none" stroke="black" points="361,-379 361,-454 643,-454 643,-379 361,-379"/>
<text text-anchor="middle" x="502" y="-438.8" font-family="Times,serif" font-size="14.00">Memory &amp; Data</text>
</g>
<!-- telegram -->
<g id="node1" class="node">
<title>telegram</title>
<path fill="none" stroke="black" d="M357.5,-655C357.5,-655 308.5,-655 308.5,-655 302.5,-655 296.5,-649 296.5,-643 296.5,-643 296.5,-629 296.5,-629 296.5,-623 302.5,-617 308.5,-617 308.5,-617 357.5,-617 357.5,-617 363.5,-617 369.5,-623 369.5,-629 369.5,-629 369.5,-643 369.5,-643 369.5,-649 363.5,-655 357.5,-655"/>
<text text-anchor="middle" x="333" y="-639.8" font-family="Arial" font-size="14.00">Telegram</text>
<text text-anchor="middle" x="333" y="-624.8" font-family="Arial" font-size="14.00">Bot</text>
</g>
<!-- meta -->
<g id="node3" class="node">
<title>meta</title>
<path fill="none" stroke="black" d="M303,-570C303,-570 273,-570 273,-570 267,-570 261,-564 261,-558 261,-558 261,-546 261,-546 261,-540 267,-534 273,-534 273,-534 303,-534 303,-534 309,-534 315,-540 315,-546 315,-546 315,-558 315,-558 315,-564 309,-570 303,-570"/>
<text text-anchor="middle" x="288" y="-548.3" font-family="Arial" font-size="14.00">Meta</text>
</g>
<!-- telegram&#45;&gt;meta -->
<g id="edge1" class="edge">
<title>telegram&#45;&gt;meta</title>
<path fill="none" stroke="black" d="M323.01,-616.8C316.91,-605.67 308.99,-591.26 302.24,-578.94"/>
<polygon fill="black" stroke="black" points="305.22,-577.11 297.34,-570.03 299.09,-580.48 305.22,-577.11"/>
</g>
<!-- studio -->
<g id="node2" class="node">
<title>studio</title>
<path fill="none" stroke="black" d="M266.5,-655C266.5,-655 219.5,-655 219.5,-655 213.5,-655 207.5,-649 207.5,-643 207.5,-643 207.5,-629 207.5,-629 207.5,-623 213.5,-617 219.5,-617 219.5,-617 266.5,-617 266.5,-617 272.5,-617 278.5,-623 278.5,-629 278.5,-629 278.5,-643 278.5,-643 278.5,-649 272.5,-655 266.5,-655"/>
<text text-anchor="middle" x="243" y="-639.8" font-family="Arial" font-size="14.00">AutoGen</text>
<text text-anchor="middle" x="243" y="-624.8" font-family="Arial" font-size="14.00">Studio</text>
</g>
<!-- studio&#45;&gt;meta -->
<g id="edge2" class="edge">
<title>studio&#45;&gt;meta</title>
<path fill="none" stroke="black" d="M252.99,-616.8C259.09,-605.67 267.01,-591.26 273.76,-578.94"/>
<polygon fill="black" stroke="black" points="276.91,-580.48 278.66,-570.03 270.78,-577.11 276.91,-580.48"/>
</g>
<!-- coord -->
<g id="node4" class="node">
<title>coord</title>
<path fill="none" stroke="black" d="M96.5,-498C96.5,-498 27.5,-498 27.5,-498 21.5,-498 15.5,-492 15.5,-486 15.5,-486 15.5,-474 15.5,-474 15.5,-468 21.5,-462 27.5,-462 27.5,-462 96.5,-462 96.5,-462 102.5,-462 108.5,-468 108.5,-474 108.5,-474 108.5,-486 108.5,-486 108.5,-492 102.5,-498 96.5,-498"/>
<text text-anchor="middle" x="62" y="-476.3" font-family="Arial" font-size="14.00">Coordination</text>
</g>
<!-- meta&#45;&gt;coord -->
<g id="edge3" class="edge">
<title>meta&#45;&gt;coord</title>
<path fill="none" stroke="black" d="M260.74,-542.56C225.63,-531.68 163.73,-512.51 118.32,-498.44"/>
<polygon fill="black" stroke="black" points="119.19,-495.05 108.6,-495.43 117.12,-501.74 119.19,-495.05"/>
</g>
<!-- res -->
<g id="node9" class="node">
<title>res</title>
<path fill="none" stroke="black" d="M201,-498C201,-498 139,-498 139,-498 133,-498 127,-492 127,-486 127,-486 127,-474 127,-474 127,-468 133,-462 139,-462 139,-462 201,-462 201,-462 207,-462 213,-468 213,-474 213,-474 213,-486 213,-486 213,-492 207,-498 201,-498"/>
<text text-anchor="middle" x="170" y="-476.3" font-family="Arial" font-size="14.00">Researcher</text>
</g>
<!-- meta&#45;&gt;res -->
<g id="edge10" class="edge">
<title>meta&#45;&gt;res</title>
<path fill="none" stroke="black" d="M260.93,-534.94C245.17,-525.59 225.06,-513.66 207.76,-503.4"/>
<polygon fill="black" stroke="black" points="209.39,-500.3 199.01,-498.21 205.82,-506.32 209.39,-500.3"/>
</g>
<!-- wab -->
<g id="node13" class="node">
<title>wab</title>
<path fill="none" stroke="black" d="M333,-498C333,-498 243,-498 243,-498 237,-498 231,-492 231,-486 231,-486 231,-474 231,-474 231,-468 237,-462 243,-462 243,-462 333,-462 333,-462 339,-462 345,-468 345,-474 345,-474 345,-486 345,-486 345,-492 339,-498 333,-498"/>
<text text-anchor="middle" x="288" y="-476.3" font-family="Arial" font-size="14.00">WebApp Builder</text>
</g>
<!-- meta&#45;&gt;wab -->
<g id="edge14" class="edge">
<title>meta&#45;&gt;wab</title>
<path fill="none" stroke="black" d="M288,-533.7C288,-525.98 288,-516.71 288,-508.11"/>
<polygon fill="black" stroke="black" points="291.5,-508.1 288,-498.1 284.5,-508.1 291.5,-508.1"/>
</g>
<!-- pg -->
<g id="node19" class="node">
<title>pg</title>
<path fill="none" stroke="black" d="M520.5,-423C520.5,-423 453.5,-423 453.5,-423 447.5,-423 441.5,-417 441.5,-411 441.5,-411 441.5,-399 441.5,-399 441.5,-393 447.5,-387 453.5,-387 453.5,-387 520.5,-387 520.5,-387 526.5,-387 532.5,-393 532.5,-399 532.5,-399 532.5,-411 532.5,-411 532.5,-417 526.5,-423 520.5,-423"/>
<text text-anchor="middle" x="487" y="-401.3" font-family="Arial" font-size="14.00">PostgreSQL</text>
</g>
<!-- meta&#45;&gt;pg -->
<g id="edge17" class="edge">
<title>meta&#45;&gt;pg</title>
<path fill="none" stroke="black" d="M315.24,-534.09C344.73,-515.46 392.8,-484.12 432,-454 441.79,-446.47 452.1,-437.72 461.11,-429.77"/>
<polygon fill="black" stroke="black" points="463.52,-432.31 468.65,-423.04 458.86,-427.09 463.52,-432.31"/>
</g>
<!-- chroma -->
<g id="node20" class="node">
<title>chroma</title>
<path fill="none" stroke="black" d="M623,-423C623,-423 563,-423 563,-423 557,-423 551,-417 551,-411 551,-411 551,-399 551,-399 551,-393 557,-387 563,-387 563,-387 623,-387 623,-387 629,-387 635,-393 635,-399 635,-399 635,-411 635,-411 635,-417 629,-423 623,-423"/>
<text text-anchor="middle" x="593" y="-401.3" font-family="Arial" font-size="14.00">ChromaDB</text>
</g>
<!-- meta&#45;&gt;chroma -->
<g id="edge18" class="edge">
<title>meta&#45;&gt;chroma</title>
<path fill="none" stroke="black" d="M315.17,-544.38C363.45,-531.83 466.21,-501.51 542,-454 552.25,-447.57 562.24,-438.89 570.62,-430.67"/>
<polygon fill="black" stroke="black" points="573.32,-432.92 577.83,-423.34 568.33,-428.02 573.32,-432.92"/>
</g>
<!-- pb -->
<g id="node5" class="node">
<title>pb</title>
<path fill="none" stroke="black" d="M110.5,-423C110.5,-423 27.5,-423 27.5,-423 21.5,-423 15.5,-417 15.5,-411 15.5,-411 15.5,-399 15.5,-399 15.5,-393 21.5,-387 27.5,-387 27.5,-387 110.5,-387 110.5,-387 116.5,-387 122.5,-393 122.5,-399 122.5,-399 122.5,-411 122.5,-411 122.5,-417 116.5,-423 110.5,-423"/>
<text text-anchor="middle" x="69" y="-401.3" font-family="Arial" font-size="14.00">Prompt Builder</text>
</g>
<!-- coord&#45;&gt;pb -->
<g id="edge4" class="edge">
<title>coord&#45;&gt;pb</title>
<path fill="none" stroke="black" d="M63.66,-461.7C64.47,-453.25 65.46,-442.87 66.38,-433.37"/>
<polygon fill="black" stroke="black" points="69.88,-433.46 67.35,-423.18 62.91,-432.8 69.88,-433.46"/>
</g>
<!-- redis -->
<g id="node18" class="node">
<title>redis</title>
<path fill="none" stroke="black" d="M411,-423C411,-423 381,-423 381,-423 375,-423 369,-417 369,-411 369,-411 369,-399 369,-399 369,-393 375,-387 381,-387 381,-387 411,-387 411,-387 417,-387 423,-393 423,-399 423,-399 423,-411 423,-411 423,-417 417,-423 411,-423"/>
<text text-anchor="middle" x="396" y="-401.3" font-family="Arial" font-size="14.00">Redis</text>
</g>
<!-- coord&#45;&gt;redis -->
<g id="edge16" class="edge">
<title>coord&#45;&gt;redis</title>
<path fill="none" stroke="black" d="M108.53,-463.88C111.72,-463.15 114.89,-462.51 118,-462 144.21,-457.66 333.2,-465.82 357,-454 366.81,-449.13 374.99,-440.52 381.29,-431.92"/>
<polygon fill="black" stroke="black" points="384.29,-433.73 386.95,-423.47 378.48,-429.83 384.29,-433.73"/>
</g>
<!-- ms -->
<g id="node6" class="node">
<title>ms</title>
<path fill="none" stroke="black" d="M115.5,-351C115.5,-351 32.5,-351 32.5,-351 26.5,-351 20.5,-345 20.5,-339 20.5,-339 20.5,-327 20.5,-327 20.5,-321 26.5,-315 32.5,-315 32.5,-315 115.5,-315 115.5,-315 121.5,-315 127.5,-321 127.5,-327 127.5,-327 127.5,-339 127.5,-339 127.5,-345 121.5,-351 115.5,-351"/>
<text text-anchor="middle" x="74" y="-329.3" font-family="Arial" font-size="14.00">Model Selector</text>
</g>
<!-- pb&#45;&gt;ms -->
<g id="edge5" class="edge">
<title>pb&#45;&gt;ms</title>
<path fill="none" stroke="black" d="M70.24,-386.7C70.79,-378.98 71.45,-369.71 72.06,-361.11"/>
<polygon fill="black" stroke="black" points="75.56,-361.33 72.78,-351.1 68.57,-360.83 75.56,-361.33"/>
</g>
<!-- ab -->
<g id="node7" class="node">
<title>ab</title>
<path fill="none" stroke="black" d="M113,-279C113,-279 39,-279 39,-279 33,-279 27,-273 27,-267 27,-267 27,-255 27,-255 27,-249 33,-243 39,-243 39,-243 113,-243 113,-243 119,-243 125,-249 125,-255 125,-255 125,-267 125,-267 125,-273 119,-279 113,-279"/>
<text text-anchor="middle" x="76" y="-257.3" font-family="Arial" font-size="14.00">Agent Builder</text>
</g>
<!-- ms&#45;&gt;ab -->
<g id="edge6" class="edge">
<title>ms&#45;&gt;ab</title>
<path fill="none" stroke="black" d="M74.49,-314.7C74.71,-306.98 74.98,-297.71 75.23,-289.11"/>
<polygon fill="black" stroke="black" points="78.72,-289.2 75.51,-279.1 71.73,-289 78.72,-289.2"/>
</g>
<!-- ifac -->
<g id="node8" class="node">
<title>ifac</title>
<path fill="none" stroke="black" d="M124,-207C124,-207 32,-207 32,-207 26,-207 20,-201 20,-195 20,-195 20,-183 20,-183 20,-177 26,-171 32,-171 32,-171 124,-171 124,-171 130,-171 136,-177 136,-183 136,-183 136,-195 136,-195 136,-201 130,-207 124,-207"/>
<text text-anchor="middle" x="78" y="-185.3" font-family="Arial" font-size="14.00">Instance Factory</text>
</g>
<!-- ab&#45;&gt;ifac -->
<g id="edge7" class="edge">
<title>ab&#45;&gt;ifac</title>
<path fill="none" stroke="black" d="M76.49,-242.7C76.71,-234.98 76.98,-225.71 77.23,-217.11"/>
<polygon fill="black" stroke="black" points="80.72,-217.2 77.51,-207.1 73.73,-217 80.72,-217.2"/>
</g>
<!-- wf -->
<g id="node12" class="node">
<title>wf</title>
<path fill="none" stroke="black" d="M112,-135C112,-135 52,-135 52,-135 46,-135 40,-129 40,-123 40,-123 40,-111 40,-111 40,-105 46,-99 52,-99 52,-99 112,-99 112,-99 118,-99 124,-105 124,-111 124,-111 124,-123 124,-123 124,-129 118,-135 112,-135"/>
<text text-anchor="middle" x="82" y="-113.3" font-family="Arial" font-size="14.00">WF Builder</text>
</g>
<!-- ifac&#45;&gt;wf -->
<g id="edge8" class="edge">
<title>ifac&#45;&gt;wf</title>
<path fill="none" stroke="black" d="M78.99,-170.7C79.43,-162.98 79.96,-153.71 80.45,-145.11"/>
<polygon fill="black" stroke="black" points="83.95,-145.29 81.02,-135.1 76.96,-144.89 83.95,-145.29"/>
</g>
<!-- fc -->
<g id="node10" class="node">
<title>fc</title>
<path fill="none" stroke="black" d="M225.5,-423C225.5,-423 152.5,-423 152.5,-423 146.5,-423 140.5,-417 140.5,-411 140.5,-411 140.5,-399 140.5,-399 140.5,-393 146.5,-387 152.5,-387 152.5,-387 225.5,-387 225.5,-387 231.5,-387 237.5,-393 237.5,-399 237.5,-399 237.5,-411 237.5,-411 237.5,-417 231.5,-423 225.5,-423"/>
<text text-anchor="middle" x="189" y="-401.3" font-family="Arial" font-size="14.00">Fact Checker</text>
</g>
<!-- res&#45;&gt;fc -->
<g id="edge11" class="edge">
<title>res&#45;&gt;fc</title>
<path fill="none" stroke="black" d="M174.5,-461.7C176.73,-453.15 179.46,-442.65 181.96,-433.07"/>
<polygon fill="black" stroke="black" points="185.4,-433.73 184.53,-423.18 178.62,-431.97 185.4,-433.73"/>
</g>
<!-- mt -->
<g id="node11" class="node">
<title>mt</title>
<path fill="none" stroke="black" d="M209.5,-351C209.5,-351 162.5,-351 162.5,-351 156.5,-351 150.5,-345 150.5,-339 150.5,-339 150.5,-327 150.5,-327 150.5,-321 156.5,-315 162.5,-315 162.5,-315 209.5,-315 209.5,-315 215.5,-315 221.5,-321 221.5,-327 221.5,-327 221.5,-339 221.5,-339 221.5,-345 215.5,-351 209.5,-351"/>
<text text-anchor="middle" x="186" y="-329.3" font-family="Arial" font-size="14.00">MultiTool</text>
</g>
<!-- fc&#45;&gt;mt -->
<g id="edge12" class="edge">
<title>fc&#45;&gt;mt</title>
<path fill="none" stroke="black" d="M188.26,-386.7C187.93,-378.98 187.53,-369.71 187.16,-361.11"/>
<polygon fill="black" stroke="black" points="190.66,-360.95 186.73,-351.1 183.66,-361.25 190.66,-360.95"/>
</g>
<!-- apis -->
<g id="node16" class="node">
<title>apis</title>
<path fill="none" stroke="black" d="M220,-52C220,-52 146,-52 146,-52 140,-52 134,-46 134,-40 134,-40 134,-28 134,-28 134,-22 140,-16 146,-16 146,-16 220,-16 220,-16 226,-16 232,-22 232,-28 232,-28 232,-40 232,-40 232,-46 226,-52 220,-52"/>
<text text-anchor="middle" x="183" y="-30.3" font-family="Arial" font-size="14.00">External APIs</text>
</g>
<!-- mt&#45;&gt;apis -->
<g id="edge13" class="edge">
<title>mt&#45;&gt;apis</title>
<path fill="none" stroke="black" d="M185.83,-314.75C185.33,-265.33 183.89,-122.94 183.28,-62.58"/>
<polygon fill="black" stroke="black" points="186.78,-62.26 183.17,-52.3 179.78,-62.33 186.78,-62.26"/>
</g>
<!-- n8n -->
<g id="node15" class="node">
<title>n8n</title>
<path fill="none" stroke="black" d="M104,-52C104,-52 74,-52 74,-52 68,-52 62,-46 62,-40 62,-40 62,-28 62,-28 62,-22 68,-16 74,-16 74,-16 104,-16 104,-16 110,-16 116,-22 116,-28 116,-28 116,-40 116,-40 116,-46 110,-52 104,-52"/>
<text text-anchor="middle" x="89" y="-30.3" font-family="Arial" font-size="14.00">n8n</text>
</g>
<!-- wf&#45;&gt;n8n -->
<g id="edge9" class="edge">
<title>wf&#45;&gt;n8n</title>
<path fill="none" stroke="black" d="M83.48,-98.82C84.4,-88.19 85.6,-74.31 86.65,-62.2"/>
<polygon fill="black" stroke="black" points="90.14,-62.42 87.52,-52.15 83.17,-61.81 90.14,-62.42"/>
</g>
<!-- gptp -->
<g id="node17" class="node">
<title>gptp</title>
<path fill="none" stroke="black" d="M313.5,-52C313.5,-52 262.5,-52 262.5,-52 256.5,-52 250.5,-46 250.5,-40 250.5,-40 250.5,-28 250.5,-28 250.5,-22 256.5,-16 262.5,-16 262.5,-16 313.5,-16 313.5,-16 319.5,-16 325.5,-22 325.5,-28 325.5,-28 325.5,-40 325.5,-40 325.5,-46 319.5,-52 313.5,-52"/>
<text text-anchor="middle" x="288" y="-30.3" font-family="Arial" font-size="14.00">GPT&#45;Pilot</text>
</g>
<!-- wab&#45;&gt;gptp -->
<g id="edge15" class="edge">
<title>wab&#45;&gt;gptp</title>
<path fill="none" stroke="black" d="M288,-461.59C288,-434.37 288,-380.07 288,-334 288,-334 288,-334 288,-188 288,-144.23 288,-93.43 288,-62.77"/>
<polygon fill="black" stroke="black" points="291.5,-62.44 288,-52.44 284.5,-62.44 291.5,-62.44"/>
</g>
<!-- comm -->
<g id="node14" class="node">
<title>comm</title>
<path fill="none" stroke="black" d="M171,-570C171,-570 89,-570 89,-570 83,-570 77,-564 77,-558 77,-558 77,-546 77,-546 77,-540 83,-534 89,-534 89,-534 171,-534 171,-534 177,-534 183,-540 183,-546 183,-546 183,-558 183,-558 183,-564 177,-570 171,-570"/>
<text text-anchor="middle" x="130" y="-548.3" font-family="Arial" font-size="14.00">Communicator</text>
</g>
</g>
</svg>
